{"title":"Project Eden - Vol-I (2017) Eng Subs HDRip H264 MPEG-4 AAC Spy1","magnet":"magnet:?xt=urn:btih:a9e15f2e98625765bfb94853a7498856ffa24823&dn=Project+Eden+-+Vol-I+%282017%29+Eng+Subs+HDRip+H264+MPEG-4+AAC+Spy1&tr=udp%3A%2F%2Ftracker.leechers-paradise.org%3A6969&tr=udp%3A%2F%2Fzer0day.ch%3A1337&tr=udp%3A%2F%2Fopen.demonii.com%3A1337&tr=udp%3A%2F%2Ftracker.coppersurfer.tk%3A6969&tr=udp%3A%2F%2Fexodus.desync.com%3A6969","uploader":"spy1984","categoryP":"video","categoryS":"movies","size":"408306574","seeders":"1","leechers":"40","description":"Aided by an ex-military officer, a young woman becomes an unwitting fugitive after discovering that her son&apos;s catatonic state may be at the heart of a global conspiracy.\r\n\r\n <a href=\"\nhttp://www.4kw.in/4635.html\" rel=\"nofollow\" target=\"_NEW\">\nhttp://www.4kw.in/4635.html</a>\r\n <a href=\"\nhttp://www.4kw.in/4636.html\" rel=\"nofollow\" target=\"_NEW\">\nhttp://www.4kw.in/4636.html</a>\r\n <a href=\"\nhttp://www.4kw.in/4637.html\" rel=\"nofollow\" target=\"_NEW\">\nhttp://www.4kw.in/4637.html</a>\r\n <a href=\"\nhttp://www.4kw.in/4638.html\" rel=\"nofollow\" target=\"_NEW\">\nhttp://www.4kw.in/4638.html</a>\r\n\r\n\r\nGeneral\r\n\r\n\r\nFormat                                   : MPEG-4\r\nFormat profile                           : Base Media\r\nCodec ID                                 : isom (isom/iso2/avc1/mp41)\r\nFile size                                : 389 MiB\r\nDuration                                 : 1 h 34 min\r\nOverall bit rate                         : 574 kb/s\r\nWriting application                      : Lavf57.83.100\r\n\r\nID                                       : 1\r\nFormat                                   : AVC\r\nFormat/Info                              : Advanced Video Codec\r\nFormat profile                           : <a href=\"/cdn-cgi/l/email-protection\" class=\"__cf_email__\" data-cfemail=\"4109282629010d726f70\">[email&#xA0;protected]</a>\r\nFormat settings                          : CABAC / 5 Ref Frames\r\nFormat settings, CABAC                   : Yes\r\nFormat settings, RefFrames               : 5 frames\r\nCodec ID                                 : avc1\r\nCodec ID/Info                            : Advanced Video Coding\r\nDuration                                 : 1 h 34 min\r\nBit rate                                 : 512 kb/s\r\nWidth                                    : 720 pixels\r\nHeight                                   : 304 pixels\r\nDisplay aspect ratio                     : 2.35:1\r\nFrame rate mode                          : Constant\r\nFrame rate                               : 24.000 FPS\r\nColor space                              : YUV\r\nChroma subsampling                       : 4:2:0\r\nBit depth                                : 8 bits\r\nScan type                                : Progressive\r\nBits/(Pixel*Frame)                       : 0.097\r\nStream size                              : 343 MiB (88%)\r\n\r\nID                                       : 2\r\nFormat                                   : AAC\r\nFormat/Info                              : Advanced Audio Codec\r\nFormat profile                           : LC\r\nCodec ID                                 : mp4a-40-2\r\nDuration                                 : 1 h 34 min\r\nDuration_LastFrame                       : -11 ms\r\nBit rate mode                            : Constant\r\nBit rate                                 : 64.7 kb/s\r\nChannel(s)                               : 2 channels\r\nChannel positions                        : Front: L R\r\nSampling rate                            : 48.0 kHz\r\nFrame rate                               : 46.875 FPS (1024 SPF)\r\nCompression mode                         : Lossy\r\nStream size                              : 43.9 MiB (11%)\r\nDefault                                  : Yes\r\nAlternate group                          : 1","last_updated":"2018-01-06T12:02:42.968Z","parsed":{"xt":"urn:btih:a9e15f2e98625765bfb94853a7498856ffa24823","dn":"Project Eden - Vol-I (2017) Eng Subs HDRip H264 MPEG-4 AAC Spy1","tr":["udp://exodus.desync.com:6969","udp://open.demonii.com:1337","udp://tracker.coppersurfer.tk:6969","udp://tracker.leechers-paradise.org:6969","udp://zer0day.ch:1337"],"infoHash":"a9e15f2e98625765bfb94853a7498856ffa24823","infoHashBuffer":{"type":"Buffer","data":[169,225,95,46,152,98,87,101,191,185,72,83,167,73,136,86,255,162,72,35]},"name":"Project Eden - Vol-I (2017) Eng Subs HDRip H264 MPEG-4 AAC Spy1","announce":["udp://exodus.desync.com:6969","udp://open.demonii.com:1337","udp://tracker.coppersurfer.tk:6969","udp://tracker.leechers-paradise.org:6969","udp://zer0day.ch:1337"],"urlList":[]}}